<?xml version="1.0" encoding="UTF-8"?>
<svg version="1.1" xmlns="http://www.w3.org/2000/svg" width="1024" height="1024">
<path d="M0 0 C337.92 0 675.84 0 1024 0 C1024 337.92 1024 675.84 1024 1024 C686.08 1024 348.16 1024 0 1024 C0 686.08 0 348.16 0 0 Z " fill="#141414" transform="translate(0,0)"/>
<path d="M0 0 C3.05344592 0.00008106 6.10674116 -0.00684874 9.16015625 -0.02050781 C63.23241478 -0.25819445 125.22502282 3.55976892 167.97119141 41.18530273 C169.17775391 42.21204102 169.17775391 42.21204102 170.40869141 43.25952148 C194.77160288 64.46286788 209.3189299 91.43183361 214.97119141 123.18530273 C215.15681641 124.08120117 215.34244141 124.97709961 215.53369141 125.90014648 C219.02007417 152.07914564 213.82029994 181.48394859 197.68164062 202.89624023 C187.26433956 216.19090798 174.90224596 226.28062679 159.97119141 234.18530273 C159.31119141 234.18530273 158.65119141 234.18530273 157.97119141 234.18530273 C157.97119141 235.17530273 157.97119141 236.16530273 157.97119141 237.18530273 C158.56802734 237.30905273 159.16486328 237.43280273 159.77978516 237.56030273 C190.26869155 244.80877974 218.92112051 267.95578184 235.48291016 293.99389648 C242.67716407 305.7947255 248.43165485 318.82484402 251.97119141 332.18530273 C252.26316406 333.26062256 252.26316406 333.26062256 252.56103516 334.35766602 C261.99833474 370.6804751 255.77260684 410.69075676 237.40087891 443.12280273 C234.27077811 448.43982017 230.87729529 453.40574091 226.97119141 458.18530273 C226.53049316 458.72993164 226.08979492 459.27456055 225.63574219 459.83569336 C210.46209998 478.47774345 192.20650526 492.11418338 170.97119141 503.18530273 C169.88837891 503.76538086 168.80556641 504.34545898 167.68994141 504.94311523 C120.58803319 528.60412053 64.4132451 532.82149556 12.53979492 532.57641602 C8.87545184 532.55924516 5.21175923 532.56956849 1.54743767 532.5867424 C-21.26645226 532.67716199 -43.50899627 531.1202962 -66.02880859 527.18530273 C-64.42775787 523.7892015 -62.63380401 521.655889 -59.96630859 518.99780273 C-42.46962541 499.81061876 -38.98918369 474.54919448 -39.80664062 449.56079102 C-40.89985651 432.9511175 -48.00248184 416.58390159 -59.02880859 404.18530273 C-59.59857422 403.51112305 -60.16833984 402.83694336 -60.75537109 402.14233398 C-72.45047101 389.27772408 -89.75229914 383.90786598 -106.65380859 382.43530273 C-107.49169922 382.39920898 -108.32958984 382.36311523 -109.19287109 382.32592773 C-111.02880859 382.18530273 -111.02880859 382.18530273 -112.02880859 381.18530273 C-112.12622998 379.78655822 -112.15436288 378.38291936 -112.15464973 376.98078632 C-112.15725748 376.06809681 -112.15986523 375.1554073 -112.162552 374.21506053 C-112.16032128 373.20036085 -112.15809056 372.18566117 -112.15579224 371.14021301 C-112.15735223 370.07081645 -112.15891222 369.00141989 -112.16051948 367.89961737 C-112.16453607 364.28365053 -112.1613368 360.66772503 -112.15820312 357.05175781 C-112.1595573 354.46930924 -112.16133732 351.88686086 -112.16351318 349.30441284 C-112.16797869 342.9851388 -112.16698866 336.66587658 -112.16410054 330.34660206 C-112.16183899 325.181661 -112.16153729 320.01672326 -112.16262436 314.85178185 C-112.16277759 314.11538548 -112.16293083 313.37898911 -112.1630887 312.6202777 C-112.16340848 311.12344172 -112.1637327 309.62660574 -112.16406129 308.12976976 C-112.16692103 294.04690684 -112.16362684 279.96405039 -112.15826093 265.88118853 C-112.15384151 253.91672002 -112.15452698 241.95226128 -112.15917969 229.98779297 C-112.16460274 216.03630767 -112.16659491 202.08482817 -112.16356742 188.13334197 C-112.16324898 186.62591438 -112.16293461 185.11848678 -112.16262436 183.61105919 C-112.16247008 182.86987875 -112.16231581 182.12869831 -112.16215686 181.36505786 C-112.16131079 176.26078897 -112.16274056 171.15652393 -112.16510391 166.05225563 C-112.17273113 147.42961356 -112.13442014 128.80771061 -112.02880859 110.18530273 C-112.02236926 108.90900733 -112.01592993 107.63271194 -112.00929546 106.31774092 C-111.96950061 98.80330283 -111.90683309 91.2896561 -111.81132483 83.77571237 C-111.78467066 81.49153981 -111.7641238 79.20728553 -111.75050187 76.92299807 C-111.61221464 55.73791255 -109.99515526 34.6303603 -95.02880859 18.18530273 C-68.67112453 -3.95672782 -32.35306328 -0.00451854 0 0 Z " fill="#FDFDFC" transform="translate(594.02880859375,227.814697265625)"/>
<path d="M0 0 C1.38514931 1.04342698 2.74032764 2.12784193 4.0625 3.25 C5.12404297 4.1471875 5.12404297 4.1471875 6.20703125 5.0625 C14.40083145 12.60262041 18.44783048 21.9761092 19.26757812 33.01049805 C19.36728835 36.05191439 19.39144234 39.08199351 19.375 42.125 C19.36936035 43.22996826 19.3637207 44.33493652 19.35791016 45.47338867 C19.15064804 59.65442656 16.36911655 72.93976432 13.3671875 86.75390625 C10.00371454 102.34883836 6.86911852 117.98655262 3.75849152 133.63352203 C2.99499339 137.47073456 2.22855677 141.3073601 1.46240234 145.14404297 C-1.07463295 157.85279998 -3.60559202 170.56273784 -6.12034607 183.27592468 C-10.20177625 203.90733304 -14.34490623 224.50815692 -18.97900391 245.02319336 C-21.88565542 257.90122394 -24.60342165 270.8151867 -27.29003906 283.74072266 C-27.67121275 285.5745466 -28.05239788 287.40836817 -28.43359375 289.2421875 C-28.62805084 290.17805695 -28.82250793 291.11392639 -29.02285767 292.07815552 C-30.67495684 300.01701696 -32.35295972 307.95028058 -34.03515625 315.8828125 C-34.57329439 318.42422397 -35.11138026 320.96564651 -35.64941406 323.50708008 C-36.43853893 327.23444285 -37.2285214 330.96160952 -38.02185059 334.68807983 C-41.08791946 349.09391591 -44.01494408 363.50561189 -46.54348755 378.01629639 C-46.88580667 379.95694435 -47.2476925 381.89412115 -47.61303711 383.83056641 C-48.90913003 390.89045404 -49.30370375 397.76416075 -49.3125 404.9375 C-49.34923828 406.53174805 -49.34923828 406.53174805 -49.38671875 408.15820312 C-49.41163689 414.89025296 -48.67861541 420.51362304 -44.9375 426.25 C-39.92154867 430.34465415 -35.99546799 431.41342512 -29.625 431.5 C-28.51511719 431.52578125 -27.40523437 431.5515625 -26.26171875 431.578125 C-16.71461071 431.20067012 -7.15081921 428.09494118 2.07861328 425.80200195 C26.23543512 419.80765674 50.54079474 414.96837002 75.21386719 411.640625 C77.6601889 411.30516779 80.09922316 410.94150417 82.5390625 410.5625 C91.49726739 409.24323427 100.3929343 409.04931158 109.4375 409 C110.61497803 408.9906543 111.79245605 408.98130859 113.00561523 408.97167969 C128.61248358 409.02902139 145.09870986 411.77659774 156.80859375 422.91015625 C167.34188598 434.44161582 167.87431675 447.84378439 167.25341797 462.72216797 C166.30425993 475.28940879 157.85431931 484.31189308 148.73828125 492.23828125 C138.62333875 499.84294605 127.17495256 501.48004429 114.87109375 501.77734375 C112.68554377 501.84821161 110.499997 501.91917854 108.31445312 501.99023438 C104.93245946 502.08998317 101.55040046 502.18611507 98.16821289 502.27905273 C82.30044802 502.73007447 66.77378123 503.9714331 51.0625 506.25 C50.00834396 506.39832779 50.00834396 506.39832779 48.93289185 506.5496521 C31.40423833 509.01809972 14.16302168 512.65621349 -3.10107422 516.5144043 C-16.87656559 519.59222124 -30.6718175 522.5646705 -44.48849487 525.45233154 C-46.80032501 525.93633613 -49.11164108 526.42280372 -51.4223938 526.91192627 C-82.79030967 533.54759551 -119.3076349 540.81222023 -147.9375 522.25 C-157.69404558 514.6466231 -162.46415899 505.18319302 -164.9375 493.25 C-165.35438673 489.34252469 -165.415453 485.48989095 -165.375 481.5625 C-165.3603772 479.91942871 -165.3603772 479.91942871 -165.34545898 478.24316406 C-165.09925968 466.63590994 -163.22005114 455.6076011 -160.9375 444.25 C-160.61705324 442.63436847 -160.29709926 441.01863915 -159.97753906 439.40283203 C-158.4771934 431.82512741 -156.96754683 424.2493543 -155.43676758 416.67773438 C-152.93481881 404.30042744 -150.51348184 391.91154746 -148.1875 379.5 C-144.69918953 360.92415149 -141.17163677 342.37587345 -136.88012695 323.96582031 C-134.90614687 315.37239132 -133.26294141 306.72024446 -131.61990356 298.05877686 C-129.88258372 288.91828073 -128.00217899 279.82313582 -125.9375 270.75 C-123.79448402 261.32253347 -121.86207194 251.87391462 -120.0625 242.375 C-117.95464299 231.27371179 -115.67162564 220.22446667 -113.25 209.1875 C-109.7894805 193.40460381 -106.52480887 177.58518998 -103.3125 161.75 C-103.0730365 160.56991364 -102.833573 159.38982727 -102.58685303 158.17398071 C-101.65189256 153.56546319 -100.71730372 148.95687064 -99.78344727 144.34812927 C-97.72510968 134.19227972 -95.64059949 124.04220263 -93.5234375 113.8984375 C-92.40693134 108.54248739 -91.31415059 103.18207391 -90.22846985 97.8197937 C-73.9075809 17.29069632 -73.9075809 17.29069632 -49.97265625 0.1640625 C-34.96933976 -9.29748844 -15.1955664 -9.58892638 0 0 Z " fill="#FDFDFB" transform="translate(357.9375,233.75)"/>
<path d="M0 0 C1.81899811 -0.00956978 1.81899811 -0.00956978 3.67474365 -0.01933289 C5.64800629 -0.02100212 5.64800629 -0.02100212 7.66113281 -0.02270508 C9.03338658 -0.02592238 10.40564 -0.0292868 11.77789307 -0.03279114 C14.66297192 -0.03878522 17.54802083 -0.04063121 20.43310547 -0.04003906 C24.08721336 -0.03993847 27.74112237 -0.05348095 31.39518356 -0.07081127 C34.23694696 -0.08207768 37.07866489 -0.0839537 39.9204483 -0.08342934 C41.90911814 -0.08514928 43.89777378 -0.09591276 45.88641357 -0.10697937 C76.88383444 -0.03071528 109.85805376 7.25089063 132.52832031 29.52807617 C133.38167969 30.39174805 134.23503906 31.25541992 135.11425781 32.14526367 C135.80261719 32.82331055 136.49097656 33.50135742 137.20019531 34.19995117 C150.03536684 47.70770811 151.8371136 65.17864152 151.39550781 82.92260742 C150.69259928 99.27401718 144.49678511 111.60128208 133.11425781 123.14526367 C132.57285156 123.75885742 132.03144531 124.37245117 131.47363281 125.00463867 C110.74641023 147.8255201 73.41741234 154.34429937 44.11425781 155.95776367 C40.78108718 156.08326251 37.44949055 156.11260597 34.11425781 156.14526367 C32.66339868 156.16907427 31.21255323 156.19372623 29.76171875 156.21899414 C25.53622678 156.28985249 21.31090032 156.33783284 17.08496094 156.37240601 C15.37170334 156.38749289 13.65847605 156.4066351 11.9453125 156.43008423 C-9.08795064 156.6901702 -9.08795064 156.6901702 -16.32324219 150.33276367 C-22.00852562 144.5502959 -21.18217445 136.44716733 -21.17626953 128.93286133 C-21.18298676 127.70613205 -21.18970398 126.47940277 -21.19662476 125.21549988 C-21.21233715 121.86204318 -21.21897795 118.50883419 -21.22025633 115.15535784 C-21.22168125 113.0570257 -21.22595727 110.95871926 -21.23125076 108.86039352 C-21.2497337 101.53085439 -21.25792348 94.20138784 -21.25634766 86.87182617 C-21.25514643 80.05414505 -21.27624934 73.23678058 -21.30783498 66.41917956 C-21.33403753 60.55314963 -21.34471331 54.68722289 -21.34343684 48.82113492 C-21.34292841 45.32317477 -21.34854522 41.82549629 -21.36979294 38.32759476 C-21.39286099 34.42375711 -21.38363005 30.52034967 -21.37158203 26.61645508 C-21.38844055 24.8924221 -21.38844055 24.8924221 -21.40563965 23.13356018 C-21.35241709 16.33924999 -20.52307804 11.93136405 -16.88574219 6.14526367 C-14.85058594 4.30541992 -14.85058594 4.30541992 -12.82324219 3.20776367 C-12.15164063 2.82749023 -11.48003906 2.4472168 -10.78808594 2.05541992 C-7.04920628 0.26659249 -4.09678663 0.01463166 0 0 Z " fill="#141414" transform="translate(601.8857421875,515.854736328125)"/>
<path d="M0 0 C1.32449661 -0.0124324 1.32449661 -0.0124324 2.67575073 -0.02511597 C5.52358837 -0.04438576 8.37085749 -0.0444457 11.21875 -0.0390625 C12.18661438 -0.03918335 13.15447876 -0.0393042 14.15167236 -0.03942871 C28.70590534 -0.01344926 42.56986317 0.62650363 56.71875 4.3359375 C57.38374512 4.5014209 58.04874023 4.6669043 58.73388672 4.83740234 C75.78859113 9.16616432 91.39713826 19.16467158 101.03125 34.1484375 C108.007203 46.73176416 108.64658851 61.89827596 105.59375 75.8359375 C100.53696984 92.62163829 89.22776764 101.79729723 74.71875 110.3359375 C73.88601563 110.8309375 73.05328125 111.3259375 72.1953125 111.8359375 C67.19267212 114.56775477 61.9613764 116.3571466 56.53125 118.0234375 C55.88502686 118.22614258 55.23880371 118.42884766 54.57299805 118.63769531 C41.21639386 122.50132246 27.49553496 122.68355524 13.70996094 122.65161133 C10.82709997 122.64841906 7.94523738 122.6721198 5.0625 122.69726562 C3.2005221 122.69953645 1.3385415 122.70024312 -0.5234375 122.69921875 C-1.37050262 122.7084285 -2.21756775 122.71763824 -3.09030151 122.72712708 C-9.88752403 122.67497307 -16.69328114 121.85754819 -21.71875 116.9609375 C-25.13362371 111.22394967 -25.57869621 106.72245636 -25.57177734 100.17456055 C-25.57849457 99.26009155 -25.58521179 98.34562256 -25.59213257 97.40344238 C-25.61110695 94.38479149 -25.61503659 91.36636304 -25.6171875 88.34765625 C-25.62361616 86.24404306 -25.63034457 84.14043077 -25.63735962 82.03681946 C-25.64933124 77.62779671 -25.65304059 73.21885231 -25.65185547 68.80981445 C-25.65165237 63.17077279 -25.678946 57.5322356 -25.71339989 51.89331341 C-25.73568046 47.54803681 -25.73969264 43.20288135 -25.73863602 38.85755348 C-25.74099055 36.77920609 -25.74980571 34.70085528 -25.76530075 32.62256432 C-25.78498238 29.70985374 -25.77911379 26.79822754 -25.76708984 23.88549805 C-25.77832886 23.03379532 -25.78956787 22.18209259 -25.80114746 21.30458069 C-25.7285041 14.35009124 -23.867878 8.99247436 -18.96875 3.9609375 C-12.91235421 0.29893074 -6.89620698 0.01996189 0 0 Z " fill="#141414" transform="translate(606.28125,312.6640625)"/>
<path d="M0 0 C1.485 0.99 1.485 0.99 3 2 C3.34057617 4.24658203 3.34057617 4.24658203 3.29296875 7.0078125 C3.28330078 7.99394531 3.27363281 8.98007812 3.26367188 9.99609375 C3.23853516 11.02863281 3.21339844 12.06117188 3.1875 13.125 C3.17396484 14.16527344 3.16042969 15.20554687 3.14648438 16.27734375 C3.11105228 18.85207627 3.06165221 21.4257833 3 24 C2.01 24 1.02 24 0 24 C0 16.08 0 8.16 0 0 Z " fill="#1C1C1C" transform="translate(750,580)"/>
<path d="M0 0 C0.33 0 0.66 0 1 0 C1 5.28 1 10.56 1 16 C-1 15 -1 15 -2 12 C-2.11659598 10.50323294 -2.17498959 9.00124939 -2.1875 7.5 C-2.20167969 6.7265625 -2.21585938 5.953125 -2.23046875 5.15625 C-2 3 -2 3 0 0 Z " fill="#1A1A19" transform="translate(583,645)"/>
<path d="M0 0 C2.67901932 2.31881505 3.66204403 4.31814468 4.6875 7.6875 C4.93886719 8.49574219 5.19023438 9.30398438 5.44921875 10.13671875 C5.63097656 10.75160156 5.81273437 11.36648438 6 12 C5.01 12.495 5.01 12.495 4 13 C-0.59225513 4.738041 -0.59225513 4.738041 0 0 Z " fill="#1A1B1A" transform="translate(794,304)"/>
<path d="M0 0 C0.99 0.33 1.98 0.66 3 1 C2.04578192 2.14926266 1.08647955 3.29430541 0.125 4.4375 C-0.40867187 5.07558594 -0.94234375 5.71367188 -1.4921875 6.37109375 C-3 8 -3 8 -5 9 C-3.90931332 5.22454612 -3.0916909 2.52956528 0 0 Z " fill="#1C1C1C" transform="translate(804,703)"/>
<path d="M0 0 C0 0.99 0 1.98 0 3 C-6.0546875 3.1953125 -6.0546875 3.1953125 -8 3 C-8.66 2.34 -9.32 1.68 -10 1 C-6.59437148 0.22157062 -3.49234244 -0.09978121 0 0 Z " fill="#232323" transform="translate(394,742)"/>
<path d="M0 0 C0.33 0 0.66 0 1 0 C1.19573608 1.43640171 1.38127816 2.87419504 1.5625 4.3125 C1.66691406 5.11300781 1.77132812 5.91351562 1.87890625 6.73828125 C2 9 2 9 1 12 C0.01 12 -0.98 12 -2 12 C-1.34 8.04 -0.68 4.08 0 0 Z " fill="#1D1D1C" transform="translate(847,625)"/>
<path d="M0 0 C0.99 0.33 1.98 0.66 3 1 C2.67 3.64 2.34 6.28 2 9 C1.01 9 0.02 9 -1 9 C-0.67 6.03 -0.34 3.06 0 0 Z " fill="#201F20" transform="translate(204,629)"/>
<path d="M0 0 C2 2 2 2 2.125 5.125 C2.08375 6.07375 2.0425 7.0225 2 8 C1.34 8 0.68 8 0 8 C-0.33 9.32 -0.66 10.64 -1 12 C-2.3609623 9.2780754 -1.70366248 7.8168043 -1.0625 4.875 C-0.86785156 3.96492188 -0.67320312 3.05484375 -0.47265625 2.1171875 C-0.31667969 1.41851562 -0.16070312 0.71984375 0 0 Z " fill="#212121" transform="translate(356,391)"/>
<path d="M0 0 C2.475 0.495 2.475 0.495 5 1 C5 1.99 5 2.98 5 4 C6.32 4.66 7.64 5.32 9 6 C8.34 6.66 7.68 7.32 7 8 C5.83035398 6.8572081 4.66435444 5.71068285 3.5 4.5625 C2.8503125 3.92441406 2.200625 3.28632813 1.53125 2.62890625 C0 1 0 1 0 0 Z " fill="#1F1F1F" transform="translate(359,234)"/>
<path d="M0 0 C1.65 0 3.3 0 5 0 C4.67 0.99 4.34 1.98 4 3 C0.04 3 -3.92 3 -8 3 C-8 2.67 -8 2.34 -8 2 C-5.36 2 -2.72 2 0 2 C0 1.34 0 0.68 0 0 Z " fill="#0E0E0D" transform="translate(642,431)"/>
</svg>
